<?xml version="1.0" standalone="no"?>
<!DOCTYPE svg PUBLIC "-//W3C//DTD SVG 20010904//EN"
 "http://www.w3.org/TR/2001/REC-SVG-20010904/DTD/svg10.dtd">
<svg version="1.0" xmlns="http://www.w3.org/2000/svg"
 width="16.000000pt" height="16.000000pt" viewBox="0 0 16.000000 16.000000"
 preserveAspectRatio="xMidYMid meet">
<metadata>
Created by potrace 1.11, written by Peter Selinger 2001-2013
</metadata>
<g transform="translate(0.000000,16.000000) scale(0.001130,-0.001130)"
fill="#000000" stroke="none">
<path d="M160 7080 l0 -7081 3298 4 c1813 2 3308 6 3322 9 14 3 75 9 135 12
103 7 451 40 540 51 22 3 58 8 80 11 1607 208 2998 809 4150 1793 60 52 112
97 115 100 3 3 30 28 60 55 189 169 480 472 646 671 254 305 501 664 677 980
75 136 255 511 302 630 26 66 51 129 56 140 27 61 154 437 174 515 2 8 20 74
40 145 19 72 37 139 39 150 3 11 11 49 20 85 8 36 17 76 20 90 3 14 7 36 10
50 27 123 65 343 80 458 3 23 9 61 12 85 3 23 7 53 9 67 2 14 7 52 9 85 3 33
8 83 11 110 42 370 42 1211 0 1571 -3 23 -8 68 -10 100 -3 33 -7 73 -10 89 -2
17 -7 53 -10 80 -4 28 -8 61 -10 75 -3 14 -9 57 -15 95 -11 79 -18 121 -25
151 -3 12 -7 39 -11 60 -3 21 -12 71 -21 109 -8 39 -17 84 -20 100 -2 17 -11
57 -20 90 -8 33 -17 71 -20 84 -2 14 -24 97 -49 185 -25 89 -47 168 -49 176
-26 101 -171 498 -226 617 -10 24 -19 45 -19 48 0 18 -190 405 -260 530 -95
168 -108 191 -172 292 -194 309 -428 618 -671 888 -147 163 -463 474 -603 592
-27 23 -62 53 -79 68 -150 132 -483 384 -708 534 -129 87 -475 297 -506 309
-9 3 -32 16 -52 28 -39 24 -342 178 -424 214 -27 12 -83 38 -123 56 -41 19
-75 34 -78 34 -2 0 -23 9 -47 19 -23 11 -87 37 -142 59 -55 21 -109 43 -120
47 -11 4 -24 9 -30 11 -5 1 -39 13 -75 27 -130 49 -463 158 -528 172 -9 2 -64
17 -122 34 -58 16 -116 32 -130 35 -14 3 -63 14 -110 26 -86 21 -379 84 -435
93 -16 3 -97 17 -180 30 -161 28 -192 32 -270 42 -27 4 -62 8 -76 11 -46 7
-236 28 -354 38 -27 3 -77 7 -110 10 -33 3 -103 8 -155 12 -52 3 -117 8 -145
11 -27 3 -1520 7 -3317 10 l-3268 4 0 -7081z m9035 3048 c33 -10 101 -38 150
-63 202 -101 335 -266 398 -495 20 -75 20 -86 22 -2380 1 -2400 2 -2351 -39
-2481 -55 -177 -204 -352 -370 -436 -43 -22 -186 -75 -194 -73 -1 1 -22 -2
-46 -5 -24 -4 -916 -8 -1982 -8 l-1939 -2 -185 -114 c-227 -139 -305 -188
-350 -217 -19 -12 -93 -58 -165 -101 -71 -44 -325 -199 -563 -346 -238 -147
-435 -267 -438 -267 -2 0 -4 233 -4 519 l0 519 -57 7 c-326 41 -602 309 -653
635 -6 43 -10 855 -10 2355 1 2423 -1 2337 44 2464 58 161 165 297 306 385
103 65 200 104 280 113 19 2 36 6 39 9 2 2 1285 3 2850 2 2675 -3 2850 -4
2906 -20z"/>
</g>
</svg>
