<svg xmlns="http://www.w3.org/2000/svg" viewBox="0 0 346 354"><defs><style>.cls-1{fill:#eb1e32;}.cls-2{fill:#cd1627;}</style></defs><title>logo</title><g id="Layer_2" data-name="Layer 2"><g id="Layer_1-2" data-name="Layer 1"><path id="logo" class="cls-1" d="M290.94,49.56C254.07,16.69,207.09,0,149,0H0V354H149c58.09,0,105.06-16.69,141.94-49.56S346,229.09,346,177,327.82,82.43,290.94,49.56ZM240.22,230.35a19.12,19.12,0,0,1-19.17,19.07H126L83.22,275.75v-26.2a19.09,19.09,0,0,1-18-19V119.29A19.12,19.12,0,0,1,84.4,100.22H221.05a19.12,19.12,0,0,1,19.17,19.07Z"/><path id="shadow" class="cls-2" d="M237.22,108.75l-.12.13a18.9,18.9,0,0,1,3.12,10.41V230.35a19.12,19.12,0,0,1-19.17,19.07H126L83.22,275.75,150.79,354c57.26-.34,103.66-17,140.15-49.54q29.31-26.13,42.95-60.35Z"/></g></g></svg>